<?xml version="1.0" encoding="UTF-8" standalone="no"?>
<!-- Created with Inkscape (http://www.inkscape.org/) -->

<svg
   xmlns:dc="http://purl.org/dc/elements/1.1/"
   xmlns:cc="http://creativecommons.org/ns#"
   xmlns:rdf="http://www.w3.org/1999/02/22-rdf-syntax-ns#"
   xmlns:svg="http://www.w3.org/2000/svg"
   xmlns="http://www.w3.org/2000/svg"
   xmlns:sodipodi="http://sodipodi.sourceforge.net/DTD/sodipodi-0.dtd"
   xmlns:inkscape="http://www.inkscape.org/namespaces/inkscape"
   width="210mm"
   height="297mm"
   viewBox="0 0 210 297"
   version="1.1"
   id="svg8"
   inkscape:version="0.92.5 (2060ec1f9f, 2020-04-08)"
   sodipodi:docname="ville.svg">
  <defs
     id="defs2" />
  <sodipodi:namedview
     id="base"
     pagecolor="#ffffff"
     bordercolor="#666666"
     borderopacity="1.0"
     inkscape:pageopacity="0.0"
     inkscape:pageshadow="2"
     inkscape:zoom="0.7"
     inkscape:cx="358.36343"
     inkscape:cy="581.64795"
     inkscape:document-units="mm"
     inkscape:current-layer="layer1"
     showgrid="false"
     inkscape:window-width="1864"
     inkscape:window-height="1016"
     inkscape:window-x="56"
     inkscape:window-y="27"
     inkscape:window-maximized="1" />
  <metadata
     id="metadata5">
    <rdf:RDF>
      <cc:Work
         rdf:about="">
        <dc:format>image/svg+xml</dc:format>
        <dc:type
           rdf:resource="http://purl.org/dc/dcmitype/StillImage" />
        <dc:title></dc:title>
      </cc:Work>
    </rdf:RDF>
  </metadata>
  <g
     inkscape:label="Layer 1"
     inkscape:groupmode="layer"
     id="layer1">
    <path
       style="fill:#000000;stroke-width:0.21860266"
       d="m 11.906249,119.96011 v -9.63437 l 3.005786,0.0477 3.005787,0.0477 0.692188,1.44376 0.692188,1.44376 0.01827,-4.08085 0.01827,-4.08085 4.307866,-3.46093 c 2.369325,-1.903519 4.418345,-3.530229 4.553377,-3.614899 0.141234,-0.08856 1.981749,1.23453 4.333312,3.115089 2.24829,1.79797 4.185186,3.26904 4.304213,3.26904 0.138091,0 0.195118,-1.76026 0.157577,-4.86391 l -0.05883,-4.86391 -0.837675,-0.06891 c -0.532671,-0.04379 -0.802809,-0.163211 -0.74192,-0.3279 0.05266,-0.142448 0.866211,-2.98879 1.807881,-6.325219 l 1.712129,-6.066217 h 3.884445 3.884444 l 0.427503,1.475562 c 0.906845,3.130064 3.088653,10.953665 3.088653,11.075408 0,0.07039 -0.3443,0.12798 -0.76511,0.12798 -0.42081,0 -0.766444,0.07378 -0.768075,0.163954 -0.01635,0.903334 -0.02422,6.555742 -0.0094,6.722032 0.01073,0.12024 0.242356,-0.17488 0.514703,-0.65581 l 0.495182,-0.874412 11.511871,-0.0566 11.511869,-0.0566 1.012303,1.857092 c 0.556765,1.0214 1.087451,1.90354 1.1793,1.9603 0.09185,0.0568 1.633956,-1.11924 3.4269,-2.61335 l 3.259893,-2.71656 2.240677,-0.0066 2.240676,-0.0066 v -5.240069 -5.24006 l 1.69417,-2.373773 c 0.931796,-1.305568 2.011849,-2.833206 2.400129,-3.394734 0.388271,-0.561537 0.781756,-1.015906 0.874407,-1.009709 0.09265,0.0058 1.225946,1.527332 2.518435,3.3803 l 2.349978,3.369023 v 5.254511 5.254511 h 2.256384 2.256385 l 1.73311,1.451626 c 0.95322,0.798404 2.73213,2.279454 3.95315,3.291234 1.44219,1.19504 2.27105,2.04284 2.36564,2.41969 0.0801,0.31905 0.12932,2.01047 0.10942,3.75871 -0.0199,1.74823 -0.0269,3.3679 -0.0156,3.59926 0.0148,0.30404 0.27803,0.0846 0.94957,-0.79182 2.64158,-3.44738 3.35641,-4.30575 3.5948,-4.31675 0.14361,-0.007 1.27488,1.26157 2.51394,2.81822 1.23905,1.55663 2.32659,2.83546 2.41677,2.84183 0.0902,0.007 0.16394,-1.85747 0.16394,-4.14187 v -4.15345 h -0.77984 c -0.92949,0 -0.99039,0.31167 0.77961,-3.98938 l 1.282,-3.115208 6.11113,-0.058 c 4.76547,-0.04528 6.13677,0.0025 6.22764,0.2186 0.0641,0.152139 0.5749,1.407887 1.13514,2.790548 0.56024,1.38266 1.06883,2.6326 1.1302,2.77765 0.0676,0.15983 1.61529,-0.94421 3.9284,-2.80234 l 3.81683,-3.066071 4.4643,3.567461 4.46429,3.56745 0.006,5.62901 c 0.003,3.09596 0.0668,5.62902 0.14119,5.62902 0.0744,0 1.7005,-1.25423 3.6137,-2.78718 1.91322,-1.53295 3.56695,-2.81766 3.67495,-2.8549 0.10799,-0.0373 1.67451,1.11862 3.48114,2.56858 1.80662,1.44996 3.33833,2.63629 3.4038,2.63629 0.0654,0 0.11903,-2.40386 0.11903,-5.34191 v -5.34191 l -0.67945,-0.0685 c -0.63735,-0.0643 -0.40503,-0.28864 3.7488,-3.62053 2.78149,-2.231105 4.51779,-3.484316 4.66897,-3.369943 0.13237,0.100154 2.14511,1.698566 4.47274,3.552033 3.97201,3.16286 4.19028,3.37414 3.55229,3.43844 l -0.67977,0.0685 v 3.09522 c 0,2.86375 0.0255,3.0589 0.3403,2.60939 0.32296,-0.4611 0.49005,-0.48585 3.27904,-0.48585 h 2.93874 v 9.61852 9.61851 H 125.14218 63.496228 v -2.19688 c 0,-3.05767 -0.639801,-4.14259 -2.442983,-4.14259 -2.072625,0 -2.651669,0.83505 -2.766386,3.98949 l -0.08546,2.34998 H 46.015473 33.829303 l -0.115184,-2.25685 c -0.166312,-3.25863 -0.735792,-4.08262 -2.821586,-4.08262 -0.716121,0 -1.028484,0.1425 -1.629234,0.74325 l -0.743249,0.74324 v 2.42649 2.42649 h -8.3069 -8.306901 z m 4.590655,5.26232 V 123.6922 H 15.29459 14.092275 v 1.53023 1.53021 h 1.202315 1.202314 z m 146.026566,0 v -1.31162 h -1.093 -1.09302 v 1.31162 1.31161 h 1.09302 1.093 z M 46.226864,123.91081 v -1.53022 h -0.983711 -0.983712 v 1.53022 1.53022 h 0.983712 0.983711 z m 7.213888,0 v -1.53022 H 52.566341 51.69193 v 1.53022 1.53022 h 0.874411 0.874411 z m 16.6138,0 v -1.53022 h -0.737783 c -0.651437,0 -0.753775,0.08 -0.874411,0.68314 -0.179097,0.89548 -0.174393,2.04806 0.0091,2.23156 0.08015,0.0801 0.473638,0.14574 0.874411,0.14574 h 0.728674 v -1.53022 z m 53.557658,0 v -1.53022 h -1.20232 -1.20232 v 1.53022 1.53022 h 1.20232 1.20232 z m 47.1735,-0.0547 0.0646,-1.47557 h -1.3216 -1.32161 v 1.54113 1.54113 l 1.25696,-0.0656 1.25697,-0.0656 z M 24.803805,123.4627 v -1.54113 l -1.256965,0.0656 -1.256966,0.0656 -0.06706,1.17626 c -0.09615,1.6863 -0.02769,1.77487 1.371823,1.77487 h 1.209175 z m 114.110585,0.0109 v -1.53021 h -1.31162 -1.31161 v 1.38448 c 0,0.76146 0.0656,1.45006 0.14573,1.53021 0.0802,0.0802 0.67038,0.14574 1.31162,0.14574 h 1.16588 z m 8.3069,0 v -1.53021 h -1.20231 -1.20232 v 1.53021 1.53022 h 1.20232 1.20231 z m -67.220317,-2.84183 v -2.29533 l -1.475568,-0.0646 -1.475568,-0.0646 v 2.43202 2.43202 l 1.475568,-0.072 1.475568,-0.072 z m 5.964429,-0.0653 0.06213,-2.3606 -1.373775,0.0653 -1.37377,0.0653 -0.06336,2.06032 c -0.03485,1.13318 -0.01145,2.19562 0.052,2.36098 0.08374,0.21823 0.460633,0.28265 1.374976,0.23499 l 1.259609,-0.0656 z m 12.67895,0 0.06213,-2.3606 -1.373772,0.0653 -1.373772,0.0653 -0.06337,2.06032 c -0.03487,1.13318 -0.01148,2.19562 0.05197,2.36098 0.08375,0.21823 0.460639,0.28265 1.374978,0.23499 l 1.259614,-0.0656 z m 6.277328,0.0653 v -2.29533 l -1.47557,-0.0646 -1.47557,-0.0646 v 2.42461 2.4246 l 1.47557,-0.0646 1.47557,-0.0646 z m 7.71129,-1.67065 c -0.0512,-2.9112 -0.11434,-3.45357 -0.42443,-3.64892 -0.26411,-0.16637 -0.45941,-0.15046 -0.71046,0.0579 -0.28843,0.23938 -0.34622,0.84847 -0.34622,3.64892 v 3.36157 h 0.77066 0.77066 z m 2.40463,0 c -0.0512,-2.9112 -0.11434,-3.45357 -0.42443,-3.64892 -0.2641,-0.16637 -0.45941,-0.15046 -0.71046,0.0579 -0.28843,0.23938 -0.34623,0.84847 -0.34623,3.64892 v 3.36157 h 0.77066 0.77067 z m 69.56474,1.88925 v -1.53021 h -1.20231 -1.20232 v 1.53021 1.53022 h 1.20232 1.20231 z m -28.89976,-0.27325 -0.0651,-1.36627 -1.03836,-0.0666 -1.03836,-0.0666 v 1.4329 1.43289 h 1.10344 1.10344 z M 41.199003,118.88295 v -1.53022 H 40.215291 39.23158 v 1.53022 1.53021 h 0.983711 0.983712 z m -16.504499,-1.85813 v -1.53021 h -1.202315 -1.202315 l -0.06646,1.28713 c -0.0946,1.83223 -0.03346,1.91737 1.320981,1.83946 l 1.150108,-0.0662 z m 28.701451,-0.0684 0.0645,-1.59865 -0.829615,0.0684 -0.829614,0.0684 -0.06646,1.28714 c -0.0883,1.71012 0.01526,1.92571 0.884715,1.84191 l 0.711963,-0.0686 z m 8.351697,0.0553 V 115.359 l -0.81976,0.0678 -0.819759,0.0678 -0.06646,1.28714 c -0.08731,1.69089 0.0078,1.8826 0.93401,1.8826 h 0.771969 z m 8.3069,0 V 115.359 l -0.819759,0.0678 -0.819761,0.0678 -0.06646,1.28714 c -0.08731,1.69089 0.0078,1.8826 0.93401,1.8826 h 0.771969 z m 60.225028,0.0132 v -1.53022 l -1.12853,-0.0654 -1.12853,-0.0654 -0.0833,1.48632 c -0.0459,0.81749 -0.0457,1.56495 4.3e-4,1.66103 0.0461,0.0961 0.59143,0.14527 1.21189,0.10931 l 1.12809,-0.0654 v -1.53022 z m 8.52551,0 v -1.53022 h -1.20232 -1.20231 l -0.0664,1.28714 c -0.0946,1.83222 -0.0335,1.91737 1.32098,1.83945 l 1.15011,-0.0662 v -1.53022 z m 8.3069,0 v -1.53022 l -1.14767,-0.0661 -1.14766,-0.0661 v 1.66236 1.66237 l 1.14766,-0.0661 1.14767,-0.0661 z m 30.27647,0.0156 v -1.62391 h -1.20232 -1.20232 v 1.47818 c 0,0.81299 0.0656,1.54374 0.14574,1.6239 0.0801,0.0801 0.6212,0.14574 1.20232,0.14574 h 1.05658 z M 46.226864,113.85508 v -1.53021 h -0.983711 -0.983712 v 1.53021 1.53023 h 0.983712 0.983711 z m 33.88341,-2.07672 v -2.29532 h -1.530218 -1.530219 v 2.29532 2.29533 h 1.530219 1.530218 z m 5.902272,0 v -2.29532 h -1.420918 -1.420916 v 2.29532 2.29533 h 1.420916 1.420918 z m 12.67895,0 v -2.29532 H 97.27058 95.849665 v 2.14958 c 0,1.18228 0.0656,2.21518 0.145736,2.29534 0.08014,0.0801 0.719566,0.14573 1.420915,0.14573 h 1.27518 z m 6.292474,-0.0546 0.0623,-2.24068 h -1.53787 -1.53786 v 2.30531 2.30531 l 1.47557,-0.0646 1.47556,-0.0646 z m -80.224828,-1.09305 -0.06463,-1.47557 h -1.202315 -1.202315 l -0.06706,1.17626 c -0.09625,1.68817 -0.02875,1.77488 1.381809,1.77488 h 1.219163 z m 114.110578,0 -0.0646,-1.47557 h -1.20231 -1.20232 l -0.0646,1.47557 -0.0646,1.47557 h 1.33159 1.3316 z m 8.35157,-0.0546 v -1.53022 h -1.20231 -1.20232 v 1.53022 1.53022 h 1.20232 1.20231 z m -93.780538,-0.43725 v -1.53022 H 52.566341 51.69193 v 1.53022 1.53022 h 0.874411 0.874411 z m 8.3069,0 v -1.53022 h -0.874411 -0.87441 v 1.53022 1.53022 h 0.87441 0.874411 z m 8.3069,-0.0132 v -1.54341 l -0.819759,0.0678 -0.819761,0.0678 -0.02729,1.31162 c -0.01502,0.72138 0.01539,1.38538 0.06755,1.47556 0.05217,0.0902 0.433338,0.16395 0.847052,0.16395 h 0.752207 z m 53.557658,0.0132 v -1.53022 h -1.20232 -1.20232 v 1.53022 1.53022 h 1.20232 1.20232 z m 47.21817,0 v -1.53022 h -1.31162 -1.31162 v 1.53022 1.53022 h 1.31162 1.31162 z M 41.199003,108.82723 V 107.297 H 40.215291 39.23158 v 1.53023 1.53021 h 0.983711 0.983712 z m 5.027861,-5.02786 v -1.53022 h -0.983711 -0.983712 v 1.53022 1.53021 h 0.983712 0.983711 z m -16.832403,-0.76511 v -0.98372 h -0.983712 -0.983712 v 0.98372 0.98371 h 0.983712 0.983712 z m 113.236179,0 v -0.98372 h -0.87441 -0.87442 v 0.98372 0.98371 h 0.87442 0.87441 z M 41.199003,98.771505 V 97.241289 H 40.215291 39.23158 v 1.530216 1.530225 h 0.983711 0.983712 z m 51.217012,-5.905692 c 0.665591,-0.523548 1.102476,-1.704523 0.91172,-2.464541 -0.07519,-0.299511 -0.430284,-0.825868 -0.789151,-1.16968 -0.521011,-0.499158 -0.851397,-0.625106 -1.639763,-0.625106 -0.838897,0 -1.083168,0.1073 -1.625165,0.713907 -0.906109,1.014104 -0.90563,2.440316 8.27e-4,3.347054 0.801246,0.801255 2.257863,0.893237 3.141243,0.198366 z m -2.220022,-2.194327 c -0.404308,-0.246973 -0.673192,-0.510956 -0.59751,-0.586638 0.07568,-0.07568 0.254003,-0.02115 0.396277,0.121082 0.458533,0.458533 0.772916,0.295405 0.66003,-0.342482 -0.08147,-0.460533 -0.04511,-0.543741 0.155543,-0.355702 0.144059,0.135003 0.230167,0.553109 0.191343,0.929119 l -0.07056,0.68366 z"
       id="path826"
       inkscape:connector-curvature="0" />
  </g>
</svg>
